<svg xmlns="http://www.w3.org/2000/svg" xmlns:xlink="http://www.w3.org/1999/xlink" width="152.085" height="134.108" viewBox="0 0 152.085 134.108">
  <defs>
    <clipPath id="clip-path">
      <path id="Path_3" data-name="Path 3" d="M36.029,7.405c-19.891,15.423.225,34.421.225,34.421,11.845,16.092,3.8,31.513,3.8,31.513a23.669,23.669,0,0,0,9.835-8.046c6.928-10.5-3.353-24.361-3.353-24.361-12.516-18.552-4.247-24.811-4.247-24.811S39.382,27.969,50.559,40.04s5.588,22.572,5.588,22.572,2.9-.671,5.14-8.494,2.46-13.184-6.259-29.5S51.45.253,51.45.253c-5.8.981-10.8,3.664-15.421,7.152" transform="translate(-27.246 -0.253)" fill="none"/>
    </clipPath>
    <linearGradient id="linear-gradient" x1="-0.688" y1="1.718" x2="-0.652" y2="1.718" gradientUnits="objectBoundingBox">
      <stop offset="0" stop-color="#00702e"/>
      <stop offset="1" stop-color="#aec905"/>
    </linearGradient>
    <clipPath id="clip-path-2">
      <path id="Path_4" data-name="Path 4" d="M24.449,16.378S30.181,25.195,29.3,36s0,16.75,6.169,16.09,5.734-10.36-1.321-21.6S24.449,16.378,24.449,16.378Z" transform="translate(-24.449 -16.378)" fill="none"/>
    </clipPath>
    <linearGradient id="linear-gradient-2" x1="-1.118" y1="2.61" x2="-1.062" y2="2.61" gradientUnits="objectBoundingBox">
      <stop offset="0" stop-color="#4cb6e4"/>
      <stop offset="1" stop-color="#1374c4"/>
    </linearGradient>
    <clipPath id="clip-path-3">
      <path id="Path_5" data-name="Path 5" d="M45.384.343c-6.171.662-5.732,10.36,1.323,21.6s9.7,14.107,9.7,14.107-5.728-8.819-4.847-19.618c.835-10.256.083-16.14-5.282-16.14a8.369,8.369,0,0,0-.891.05" transform="translate(-41.064 -0.293)" fill="none"/>
    </clipPath>
    <linearGradient id="linear-gradient-3" x1="-2.037" y1="3.519" x2="-1.979" y2="3.519" xlink:href="#linear-gradient-2"/>
    <clipPath id="clip-path-4">
      <rect id="Rectangle_6" data-name="Rectangle 6" width="152.085" height="134.108" fill="none"/>
    </clipPath>
  </defs>
  <g id="Group_13" data-name="Group 13" transform="translate(-884 -16.392)">
    <g id="Group_12" data-name="Group 12">
      <path id="Path_1" data-name="Path 1" d="M41.86,5.984,12.787,5.87V52.777H37.975" transform="translate(897.847 22.747)" fill="none" stroke="#00aa9e" stroke-width="3"/>
      <path id="Path_2" data-name="Path 2" d="M52.744,5.87h23.02V52.777H44.409" transform="translate(932.088 22.747)" fill="none" stroke="#00aa9e" stroke-width="3"/>
      <g id="Group_2" data-name="Group 2" transform="translate(940.75 16.918)">
        <g id="Group_1" data-name="Group 1" clip-path="url(#clip-path)">
          <rect id="Rectangle_1" data-name="Rectangle 1" width="58.472" height="79.644" transform="translate(-22.418 1.795) rotate(-9.014)" fill="url(#linear-gradient)"/>
        </g>
      </g>
      <g id="Group_4" data-name="Group 4" transform="translate(934.924 50.504)">
        <g id="Group_3" data-name="Group 3" clip-path="url(#clip-path-2)">
          <rect id="Rectangle_2" data-name="Rectangle 2" width="36.778" height="38.767" transform="translate(-17.989 15.524) rotate(-40.793)" fill="url(#linear-gradient-2)"/>
        </g>
      </g>
      <g id="Group_6" data-name="Group 6" transform="translate(969.529 17.001)">
        <g id="Group_5" data-name="Group 5" clip-path="url(#clip-path-3)">
          <rect id="Rectangle_3" data-name="Rectangle 3" width="36.377" height="38.304" transform="matrix(0.757, -0.653, 0.653, 0.757, -19.538, 15.264)" fill="url(#linear-gradient-3)"/>
        </g>
      </g>
    </g>
    <g id="Group_8" data-name="Group 8" transform="translate(884 16.392)">
      <g id="Group_7" data-name="Group 7" clip-path="url(#clip-path-4)">
        <path id="Path_6" data-name="Path 6" d="M136.8,60.224V37.762h4.316V49.549l5.278-5.9h5.34l-5.782,6.146,6.13,10.431h-5.324l-3.966-7.063-1.677,1.816v5.247Zm-19.916-8.313a9.067,9.067,0,0,1,2.243-6.5,9.2,9.2,0,0,1,12.316,0,9.043,9.043,0,0,1,2.249,6.5,9.068,9.068,0,0,1-2.249,6.513,9.208,9.208,0,0,1-12.316,0,9.092,9.092,0,0,1-2.243-6.513m4.5,0a6.218,6.218,0,0,0,1.016,3.812,3.753,3.753,0,0,0,5.751,0,6.218,6.218,0,0,0,1.016-3.812,6.194,6.194,0,0,0-1.006-3.789,3.779,3.779,0,0,0-5.761,0,6.152,6.152,0,0,0-1.016,3.789m-23.48,0a9.058,9.058,0,0,1,2.243-6.5,9.2,9.2,0,0,1,12.316,0,9.043,9.043,0,0,1,2.249,6.5,9.068,9.068,0,0,1-2.249,6.513,9.208,9.208,0,0,1-12.316,0A9.083,9.083,0,0,1,97.9,51.911m4.5,0a6.218,6.218,0,0,0,1.014,3.812,3.755,3.755,0,0,0,5.753,0,6.218,6.218,0,0,0,1.014-3.812,6.2,6.2,0,0,0-1-3.789,3.781,3.781,0,0,0-5.763,0,6.152,6.152,0,0,0-1.014,3.789M86.751,60.224V43.646h4.118v2.837A6.649,6.649,0,0,1,92.9,43.978a4.715,4.715,0,0,1,2.758-.8c.173,0,.308,0,.406.006a1.852,1.852,0,0,1,.235.027l.015,4.5H94.836a3.628,3.628,0,0,0-2.729.948,3.882,3.882,0,0,0-.916,2.806v8.765Zm-7.427-8.4a5.945,5.945,0,0,0-.964-3.593,3.091,3.091,0,0,0-2.633-1.306A3.242,3.242,0,0,0,72.987,48.2a5.89,5.89,0,0,0-.966,3.622,6.665,6.665,0,0,0,.921,3.841,3.084,3.084,0,0,0,2.691,1.312,3.155,3.155,0,0,0,2.743-1.318,6.537,6.537,0,0,0,.948-3.835M67.705,37.762h4.316v7.944a5.517,5.517,0,0,1,2.066-1.962,6.19,6.19,0,0,1,7.74,1.816A10.271,10.271,0,0,1,83.732,52a9.981,9.981,0,0,1-1.906,6.357,6.025,6.025,0,0,1-4.97,2.424,5.548,5.548,0,0,1-2.787-.671,6.428,6.428,0,0,1-2.143-2.135v2.243H67.705ZM48.961,60.224V43.646h4.347v1.966a6.058,6.058,0,0,1,2.2-1.806,6.51,6.51,0,0,1,2.822-.6,5.437,5.437,0,0,1,4.112,1.427A5.993,5.993,0,0,1,63.8,48.924v11.3H59.361V50.2a4.137,4.137,0,0,0-.6-2.543,2.326,2.326,0,0,0-1.956-.766,3.3,3.3,0,0,0-2.483.937,3.506,3.506,0,0,0-.919,2.556v9.837Zm-8.125-8.163a11.832,11.832,0,0,1-2.493.814c-.944.2-1.433.306-1.458.317a3.62,3.62,0,0,0-1.645.837,1.988,1.988,0,0,0-.462,1.389,1.881,1.881,0,0,0,.594,1.46,2.307,2.307,0,0,0,1.6.539A3.857,3.857,0,0,0,39.805,56.4a3.71,3.71,0,0,0,1.031-2.77Zm.077,6.107a5.573,5.573,0,0,1-2.2,1.972,6.976,6.976,0,0,1-3.162.677,4.869,4.869,0,0,1-3.712-1.375,5.45,5.45,0,0,1-1.306-3.9,4.7,4.7,0,0,1,1.3-3.583,7.961,7.961,0,0,1,4.311-1.7c.456-.067,1.056-.152,1.8-.24,1.885-.244,2.822-.791,2.822-1.635a1.633,1.633,0,0,0-.625-1.441,3.824,3.824,0,0,0-2.087-.433A3.412,3.412,0,0,0,36,47.046a1.785,1.785,0,0,0-.719,1.523v.246H31.132v-.306a4.855,4.855,0,0,1,1.8-4,7.68,7.68,0,0,1,4.972-1.458,9.809,9.809,0,0,1,5.33,1.2,3.9,3.9,0,0,1,1.852,3.476v9.427A4.323,4.323,0,0,0,45.3,58.71a1.461,1.461,0,0,0,.719.764v.75H41.4a3.947,3.947,0,0,1-.35-.946,5.31,5.31,0,0,1-.135-1.11M28.847,60.345c-.406.01-.889.031-1.458.056s-.921.037-1.071.037c-1.7,0-2.864-.319-3.489-.952s-.935-1.891-.935-3.76V46.758H19.7V43.646h2.2v-4.53h4.393v4.53h2.56v3.112h-2.56v9.181a1.009,1.009,0,0,0,.29.86,2.253,2.253,0,0,0,1.187.208h1.083ZM0,53.286H4.559a3.852,3.852,0,0,0,1.51,2.739,6.192,6.192,0,0,0,3.612.889,5.273,5.273,0,0,0,3.035-.719,2.408,2.408,0,0,0,1.021-2.118q0-2.046-5.872-3.385l-.135-.031c-.1-.019-.26-.056-.473-.108a14.586,14.586,0,0,1-4.482-1.541,4.9,4.9,0,0,1-1.816-2.05,6.9,6.9,0,0,1-.625-3.041,6.011,6.011,0,0,1,2.229-5.028q2.224-1.743,6.432-1.745a9.3,9.3,0,0,1,6.155,1.86,6.827,6.827,0,0,1,2.341,5.247H13.049a3.255,3.255,0,0,0-1.25-2.483,5.258,5.258,0,0,0-3.216-.854,4.711,4.711,0,0,0-2.8.708,2.341,2.341,0,0,0-.985,2.02c0,1.191,1.275,2.075,3.826,2.67.694.16,1.235.285,1.618.379,1.635.417,2.8.744,3.483.973a10.988,10.988,0,0,1,1.8.781,5.122,5.122,0,0,1,2.056,2.02,6.219,6.219,0,0,1,.687,3.014A6.615,6.615,0,0,1,15.9,58.918,10.278,10.278,0,0,1,9.24,60.849,10.2,10.2,0,0,1,2.593,58.88,7.3,7.3,0,0,1,0,53.286" transform="translate(0 40.225)" fill="#ee7c00"/>
        <line id="Line_1" data-name="Line 1" x1="32.896" transform="translate(0 112.223)" fill="none" stroke="#00999a" stroke-width="0.585"/>
        <line id="Line_2" data-name="Line 2" x1="32.896" transform="translate(119.189 112.223)" fill="none" stroke="#00999a" stroke-width="0.585"/>
        <path id="Path_7" data-name="Path 7" d="M21.319,59.71l-2.589-6.8h1.218l1.46,4.074c.158.439.3.9.435,1.373q.153-.537.429-1.293l1.512-4.153H24.97L22.4,59.71Z" transform="translate(20.282 57.287)" fill="#1a1a18"/>
        <path id="Path_8" data-name="Path 8" d="M28.016,58.948a4.215,4.215,0,0,1-1.233.769,3.512,3.512,0,0,1-1.273.227,2.462,2.462,0,0,1-1.723-.55,1.8,1.8,0,0,1-.6-1.4,1.858,1.858,0,0,1,.227-.912,1.913,1.913,0,0,1,.6-.664,2.8,2.8,0,0,1,.831-.377,8.577,8.577,0,0,1,1.025-.173,10.47,10.47,0,0,0,2.056-.4q.006-.237.006-.3a1.269,1.269,0,0,0-.327-.994,1.928,1.928,0,0,0-1.314-.392,2.02,2.02,0,0,0-1.2.287,1.729,1.729,0,0,0-.575,1.008l-1.127-.154a2.791,2.791,0,0,1,.506-1.171,2.233,2.233,0,0,1,1.019-.685,4.549,4.549,0,0,1,1.543-.24,4.14,4.14,0,0,1,1.418.2,1.9,1.9,0,0,1,.8.517,1.791,1.791,0,0,1,.358.783,6.367,6.367,0,0,1,.058,1.064v1.539a16.624,16.624,0,0,0,.073,2.033,2.621,2.621,0,0,0,.292.819h-1.2a2.458,2.458,0,0,1-.231-.841m-.1-2.574a8.528,8.528,0,0,1-1.883.435,4.354,4.354,0,0,0-1.006.231.986.986,0,0,0-.617.923.984.984,0,0,0,.35.769,1.508,1.508,0,0,0,1.023.306,2.39,2.39,0,0,0,1.185-.29,1.794,1.794,0,0,0,.762-.8A2.806,2.806,0,0,0,27.92,56.8Z" transform="translate(25.107 57.207)" fill="#1a1a18"/>
        <path id="Path_9" data-name="Path 9" d="M32.659,57.3l1.135.146a2.957,2.957,0,0,1-.952,1.837,2.775,2.775,0,0,1-1.881.664,2.921,2.921,0,0,1-2.245-.914,3.705,3.705,0,0,1-.85-2.618,4.741,4.741,0,0,1,.367-1.929,2.544,2.544,0,0,1,1.11-1.239,3.307,3.307,0,0,1,1.625-.414,2.821,2.821,0,0,1,1.814.562,2.571,2.571,0,0,1,.9,1.593l-1.121.173A1.863,1.863,0,0,0,32,54.126a1.466,1.466,0,0,0-.985-.346A1.793,1.793,0,0,0,29.6,54.4a2.967,2.967,0,0,0-.544,1.979,3.073,3.073,0,0,0,.525,1.993,1.7,1.7,0,0,0,1.371.619,1.614,1.614,0,0,0,1.133-.414,2.07,2.07,0,0,0,.577-1.281" transform="translate(30.175 57.206)" fill="#1a1a18"/>
        <path id="Path_10" data-name="Path 10" d="M36.987,58.948a4.216,4.216,0,0,1-1.233.769,3.512,3.512,0,0,1-1.273.227,2.462,2.462,0,0,1-1.723-.55,1.8,1.8,0,0,1-.6-1.4,1.858,1.858,0,0,1,.227-.912,1.913,1.913,0,0,1,.6-.664,2.8,2.8,0,0,1,.831-.377,8.576,8.576,0,0,1,1.025-.173,10.47,10.47,0,0,0,2.056-.4q.006-.237.006-.3a1.269,1.269,0,0,0-.327-.994,1.928,1.928,0,0,0-1.314-.392,2.02,2.02,0,0,0-1.2.287,1.729,1.729,0,0,0-.575,1.008l-1.127-.154a2.791,2.791,0,0,1,.506-1.171,2.233,2.233,0,0,1,1.019-.685,4.549,4.549,0,0,1,1.543-.24,4.14,4.14,0,0,1,1.418.2,1.9,1.9,0,0,1,.8.517,1.791,1.791,0,0,1,.358.783,6.368,6.368,0,0,1,.058,1.064v1.539a16.623,16.623,0,0,0,.073,2.033,2.621,2.621,0,0,0,.292.819h-1.2a2.458,2.458,0,0,1-.231-.841m-.1-2.574a8.528,8.528,0,0,1-1.883.435A4.354,4.354,0,0,0,34,57.04a.986.986,0,0,0-.617.923.984.984,0,0,0,.35.769,1.507,1.507,0,0,0,1.023.306,2.39,2.39,0,0,0,1.185-.29,1.794,1.794,0,0,0,.762-.8,2.806,2.806,0,0,0,.185-1.154Z" transform="translate(34.821 57.207)" fill="#1a1a18"/>
        <path id="Path_11" data-name="Path 11" d="M39.853,59.914l.167,1.019a4.393,4.393,0,0,1-.871.1,1.944,1.944,0,0,1-.975-.2,1.107,1.107,0,0,1-.487-.521,4.142,4.142,0,0,1-.14-1.362V55.038H36.7v-.9h.848V52.456l1.146-.692v2.379h1.16v.9h-1.16v3.978a1.957,1.957,0,0,0,.062.635.456.456,0,0,0,.2.223.758.758,0,0,0,.394.083,3.537,3.537,0,0,0,.506-.044" transform="translate(39.74 56.052)" fill="#1a1a18"/>
        <path id="Path_12" data-name="Path 12" d="M39.917,51.661h1.154v1.327H39.917Zm0,2.591h1.154v6.8H39.917Z" transform="translate(43.224 55.94)" fill="#1a1a18"/>
        <path id="Path_13" data-name="Path 13" d="M42.266,56.386a3.5,3.5,0,0,1,1.052-2.8,3.16,3.16,0,0,1,2.139-.756,3.053,3.053,0,0,1,2.293.919,3.5,3.5,0,0,1,.889,2.541,4.5,4.5,0,0,1-.392,2.066A2.8,2.8,0,0,1,47.1,59.527a3.346,3.346,0,0,1-1.643.417,3.062,3.062,0,0,1-2.31-.916,3.661,3.661,0,0,1-.881-2.641m1.185,0a2.9,2.9,0,0,0,.569,1.958,1.9,1.9,0,0,0,2.864,0,2.961,2.961,0,0,0,.573-1.993,2.808,2.808,0,0,0-.575-1.912,1.9,1.9,0,0,0-2.862,0,2.884,2.884,0,0,0-.569,1.952" transform="translate(45.768 57.207)" fill="#1a1a18"/>
        <path id="Path_14" data-name="Path 14" d="M47.133,59.79v-6.8h1.039v.966a2.445,2.445,0,0,1,2.164-1.121,2.8,2.8,0,0,1,1.131.223,1.766,1.766,0,0,1,.773.579,2.186,2.186,0,0,1,.358.852,6.485,6.485,0,0,1,.065,1.121V59.79H51.511V55.651a3.1,3.1,0,0,0-.135-1.054,1.127,1.127,0,0,0-.477-.558,1.535,1.535,0,0,0-.8-.208,1.875,1.875,0,0,0-1.273.467,2.319,2.319,0,0,0-.535,1.777V59.79Z" transform="translate(51.038 57.207)" fill="#1a1a18"/>
        <path id="Path_15" data-name="Path 15" d="M51.574,57.757l1.141-.179a1.592,1.592,0,0,0,.535,1.052,1.862,1.862,0,0,0,1.227.364,1.8,1.8,0,0,0,1.179-.325.964.964,0,0,0,.385-.758A.7.7,0,0,0,55.7,57.3a4.909,4.909,0,0,0-1.179-.392,10.684,10.684,0,0,1-1.758-.554,1.671,1.671,0,0,1-1-1.56,1.765,1.765,0,0,1,.206-.841,1.9,1.9,0,0,1,.569-.646,2.388,2.388,0,0,1,.733-.335,3.5,3.5,0,0,1,1-.137,3.98,3.98,0,0,1,1.406.229,1.892,1.892,0,0,1,.891.627,2.427,2.427,0,0,1,.4,1.054l-1.129.152a1.242,1.242,0,0,0-.446-.821,1.638,1.638,0,0,0-1.039-.294,1.885,1.885,0,0,0-1.135.262.77.77,0,0,0-.34.617.634.634,0,0,0,.14.4,1.031,1.031,0,0,0,.444.308q.172.066,1.019.294a14.587,14.587,0,0,1,1.708.535,1.734,1.734,0,0,1,.758.606,1.678,1.678,0,0,1,.277.987,1.932,1.932,0,0,1-.337,1.085,2.192,2.192,0,0,1-.971.789,3.542,3.542,0,0,1-1.435.279,3.2,3.2,0,0,1-2.02-.552,2.568,2.568,0,0,1-.889-1.635" transform="translate(55.847 57.207)" fill="#1a1a18"/>
        <path id="Path_16" data-name="Path 16" d="M7.067,60.465a1.871,1.871,0,0,1,.6,1.431,1.9,1.9,0,0,1-.583,1.433,2.454,2.454,0,0,1-1.766.564H4.007v2.8H3.116V59.909h2.2a2.49,2.49,0,0,1,1.748.556m-3.06,2.722H5.32a1.539,1.539,0,0,0,1.091-.337,1.24,1.24,0,0,0,.356-.944q0-1.284-1.448-1.283H4.007Z" transform="translate(3.374 64.871)" fill="#1a1a18"/>
        <path id="Path_17" data-name="Path 17" d="M7.052,65.306a2.842,2.842,0,0,1-.735-2.018A2.748,2.748,0,0,1,7.048,61.3a2.443,2.443,0,0,1,1.835-.758,2.207,2.207,0,0,1,1.2.323,2.126,2.126,0,0,1,.779.841V60.633h.9v5.374h-.9v-1.1a2.15,2.15,0,0,1-.779.856,2.174,2.174,0,0,1-1.2.327,2.4,2.4,0,0,1-1.831-.787m3.274-.525a2.26,2.26,0,0,0,0-2.916,1.8,1.8,0,0,0-2.564-.019,1.929,1.929,0,0,0-.533,1.437,2.063,2.063,0,0,0,.537,1.479,1.744,1.744,0,0,0,2.56.019" transform="translate(6.84 65.558)" fill="#1a1a18"/>
        <path id="Path_18" data-name="Path 18" d="M10.218,62.149a1.423,1.423,0,0,1,.564-1.141,2.221,2.221,0,0,1,1.458-.464,2.039,2.039,0,0,1,1.4.454,1.748,1.748,0,0,1,.558,1.25h-.921a1.021,1.021,0,0,0-.3-.725,1.09,1.09,0,0,0-.789-.275,1.2,1.2,0,0,0-.794.242.766.766,0,0,0-.287.617.647.647,0,0,0,.327.581,2.308,2.308,0,0,0,.794.3c.31.065.621.135.931.217a1.673,1.673,0,0,1,.791.46,1.319,1.319,0,0,1,.329.96,1.275,1.275,0,0,1-.562,1.046,2.359,2.359,0,0,1-1.464.427,2.184,2.184,0,0,1-1.443-.45,1.675,1.675,0,0,1-.594-1.243h.921a.975.975,0,0,0,.319.719,1.174,1.174,0,0,0,.823.271,1.32,1.32,0,0,0,.821-.227.688.688,0,0,0,.3-.571.7.7,0,0,0-.235-.554,1.293,1.293,0,0,0-.587-.283c-.235-.054-.492-.115-.769-.185s-.533-.15-.769-.231a1.245,1.245,0,0,1-.587-.427,1.206,1.206,0,0,1-.235-.762" transform="translate(11.065 65.558)" fill="#1a1a18"/>
        <path id="Path_19" data-name="Path 19" d="M13.321,62.149a1.423,1.423,0,0,1,.564-1.141,2.221,2.221,0,0,1,1.458-.464,2.039,2.039,0,0,1,1.4.454,1.748,1.748,0,0,1,.558,1.25h-.921a1.021,1.021,0,0,0-.3-.725,1.09,1.09,0,0,0-.789-.275,1.2,1.2,0,0,0-.794.242.766.766,0,0,0-.287.617.647.647,0,0,0,.327.581,2.308,2.308,0,0,0,.794.3c.31.065.621.135.931.217a1.673,1.673,0,0,1,.791.46,1.319,1.319,0,0,1,.329.96,1.275,1.275,0,0,1-.562,1.046,2.359,2.359,0,0,1-1.464.427,2.184,2.184,0,0,1-1.443-.45,1.675,1.675,0,0,1-.594-1.243h.921a.975.975,0,0,0,.319.719,1.174,1.174,0,0,0,.823.271,1.32,1.32,0,0,0,.821-.227.688.688,0,0,0,.3-.571.7.7,0,0,0-.235-.554,1.293,1.293,0,0,0-.587-.283c-.235-.054-.492-.115-.769-.185s-.533-.15-.769-.231a1.245,1.245,0,0,1-.587-.427,1.206,1.206,0,0,1-.235-.762" transform="translate(14.425 65.558)" fill="#1a1a18"/>
        <path id="Path_20" data-name="Path 20" d="M17.474,60.627a.589.589,0,0,1-.431.175.572.572,0,0,1-.425-.175.624.624,0,0,1,0-.862.606.606,0,0,1,.852.862m-.881,1.037h.891v5.374h-.891Z" transform="translate(17.81 64.524)" fill="#1a1a18"/>
        <path id="Path_21" data-name="Path 21" d="M18.891,65.33a2.766,2.766,0,0,1-.739-2.008,2.707,2.707,0,0,1,.775-2.01,2.822,2.822,0,0,1,3.876,0,2.709,2.709,0,0,1,.773,2.008,2.639,2.639,0,0,1-.808,2.006,2.764,2.764,0,0,1-1.972.769,2.537,2.537,0,0,1-1.9-.764m1.9.029a1.8,1.8,0,0,0,1.306-.544,2,2,0,0,0,.554-1.5,2.041,2.041,0,0,0-.529-1.5,1.738,1.738,0,0,0-1.287-.539,1.673,1.673,0,0,0-1.266.539,2.1,2.1,0,0,0-.51,1.5,2.162,2.162,0,0,0,.489,1.5,1.61,1.61,0,0,0,1.243.537" transform="translate(19.656 65.557)" fill="#1a1a18"/>
        <path id="Path_22" data-name="Path 22" d="M22.869,60.633V61.5a1.869,1.869,0,0,1,1.752-.96,2.04,2.04,0,0,1,1.489.594,2.277,2.277,0,0,1,.6,1.689v3.181h-.881V62.972a1.752,1.752,0,0,0-.392-1.233,1.4,1.4,0,0,0-1.081-.421,1.42,1.42,0,0,0-1.087.421,1.734,1.734,0,0,0-.4,1.233v3.035h-.891V60.633Z" transform="translate(23.799 65.558)" fill="#1a1a18"/>
        <path id="Path_23" data-name="Path 23" d="M26.51,63.595a.566.566,0,0,1-.8,0,.578.578,0,0,1,0-.812.566.566,0,0,1,.8,0,.578.578,0,0,1,0,.812" transform="translate(27.657 67.803)" fill="#1a1a18"/>
        <path id="Path_24" data-name="Path 24" d="M28.146,63.595a.566.566,0,0,1-.8,0,.578.578,0,0,1,0-.812.566.566,0,0,1,.8,0,.578.578,0,0,1,0,.812" transform="translate(29.429 67.803)" fill="#1a1a18"/>
        <path id="Path_25" data-name="Path 25" d="M32.858,60.465a1.871,1.871,0,0,1,.6,1.431,1.9,1.9,0,0,1-.583,1.433,2.454,2.454,0,0,1-1.766.564H29.8v2.8h-.891V59.909h2.2a2.49,2.49,0,0,1,1.748.556M29.8,63.187h1.312A1.539,1.539,0,0,0,32.2,62.85a1.24,1.24,0,0,0,.356-.944q0-1.284-1.448-1.283H29.8Z" transform="translate(31.302 64.871)" fill="#1a1a18"/>
        <path id="Path_26" data-name="Path 26" d="M34.713,66.094a2.47,2.47,0,0,1-1.879-.762,2.813,2.813,0,0,1-.727-2.018,2.776,2.776,0,0,1,.735-2.012,2.791,2.791,0,0,1,3.785-.037,2.5,2.5,0,0,1,.708,1.835,3.464,3.464,0,0,1-.037.527H33.019a1.849,1.849,0,0,0,.5,1.271,1.615,1.615,0,0,0,1.189.462,1.672,1.672,0,0,0,.925-.244,1.455,1.455,0,0,0,.552-.646h.96a2.45,2.45,0,0,1-.877,1.164,2.534,2.534,0,0,1-1.56.46m1.2-4.351a1.753,1.753,0,0,0-2.37-.01,1.833,1.833,0,0,0-.519,1.25h3.378a1.678,1.678,0,0,0-.489-1.239" transform="translate(34.767 65.558)" fill="#1a1a18"/>
        <path id="Path_27" data-name="Path 27" d="M36.409,65.33a2.766,2.766,0,0,1-.739-2.008,2.707,2.707,0,0,1,.775-2.01,2.822,2.822,0,0,1,3.876,0,2.709,2.709,0,0,1,.773,2.008,2.639,2.639,0,0,1-.808,2.006,2.764,2.764,0,0,1-1.972.769,2.537,2.537,0,0,1-1.9-.764m1.9.029a1.809,1.809,0,0,0,1.308-.544,2.009,2.009,0,0,0,.554-1.5,2.05,2.05,0,0,0-.529-1.5,1.746,1.746,0,0,0-1.289-.539,1.67,1.67,0,0,0-1.266.539,2.094,2.094,0,0,0-.508,1.5,2.161,2.161,0,0,0,.487,1.5,1.61,1.61,0,0,0,1.243.537" transform="translate(38.625 65.557)" fill="#1a1a18"/>
        <path id="Path_28" data-name="Path 28" d="M42.374,60.543a2.446,2.446,0,0,1,1.835.758,2.76,2.76,0,0,1,.729,1.989,2.839,2.839,0,0,1-.733,2.016,2.4,2.4,0,0,1-1.831.787,2.181,2.181,0,0,1-1.2-.327,2.219,2.219,0,0,1-.787-.856v3.641H39.5V60.633h.891v1.077a2.179,2.179,0,0,1,1.987-1.166M42.2,65.331a1.7,1.7,0,0,0,1.281-.564,2.05,2.05,0,0,0,.533-1.477,1.937,1.937,0,0,0-.533-1.443,1.75,1.75,0,0,0-1.281-.529,1.73,1.73,0,0,0-1.283.548,2.254,2.254,0,0,0,0,2.912,1.72,1.72,0,0,0,1.283.554" transform="translate(42.768 65.558)" fill="#1a1a18"/>
        <rect id="Rectangle_4" data-name="Rectangle 4" width="0.891" height="7.244" transform="translate(90.235 124.321)" fill="#1a1a18"/>
        <path id="Path_29" data-name="Path 29" d="M47.563,66.094a2.47,2.47,0,0,1-1.879-.762,2.8,2.8,0,0,1-.725-2.018,2.774,2.774,0,0,1,.733-2.012,2.586,2.586,0,0,1,4.495,1.8,3.2,3.2,0,0,1-.042.527H45.867a1.859,1.859,0,0,0,.506,1.271,1.612,1.612,0,0,0,1.189.462,1.667,1.667,0,0,0,.925-.244,1.473,1.473,0,0,0,.554-.646H50a2.472,2.472,0,0,1-.875,1.164,2.545,2.545,0,0,1-1.562.46m1.2-4.351a1.753,1.753,0,0,0-2.37-.01,1.833,1.833,0,0,0-.519,1.25h3.378a1.686,1.686,0,0,0-.489-1.239" transform="translate(48.684 65.558)" fill="#1a1a18"/>
        <path id="Path_30" data-name="Path 30" d="M49.565,63.595a.566.566,0,0,1-.8,0,.578.578,0,0,1,0-.812.571.571,0,0,1,.8.812" transform="translate(52.622 67.803)" fill="#1a1a18"/>
        <path id="Path_31" data-name="Path 31" d="M51.2,63.595a.566.566,0,0,1-.8,0,.578.578,0,0,1,0-.812.571.571,0,0,1,.8.812" transform="translate(54.395 67.803)" fill="#1a1a18"/>
        <path id="Path_32" data-name="Path 32" d="M55.912,60.465a1.871,1.871,0,0,1,.6,1.431,1.918,1.918,0,0,1-.581,1.433,2.463,2.463,0,0,1-1.768.564H52.852v2.8h-.891V59.909h2.2a2.49,2.49,0,0,1,1.748.556m-3.06,2.722h1.312a1.537,1.537,0,0,0,1.089-.337,1.226,1.226,0,0,0,.358-.944q0-1.284-1.448-1.283H52.852Z" transform="translate(56.266 64.871)" fill="#1a1a18"/>
        <rect id="Rectangle_5" data-name="Rectangle 5" width="0.891" height="7.244" transform="translate(115.248 124.321)" fill="#1a1a18"/>
        <path id="Path_33" data-name="Path 33" d="M57.7,65.306a2.833,2.833,0,0,1-.735-2.018A2.747,2.747,0,0,1,57.7,61.3a2.444,2.444,0,0,1,1.837-.758,2.212,2.212,0,0,1,1.2.323,2.126,2.126,0,0,1,.779.841V60.633h.9v5.374h-.9v-1.1a2.15,2.15,0,0,1-.779.856,2.178,2.178,0,0,1-1.2.327,2.394,2.394,0,0,1-1.831-.787m3.274-.525a2.26,2.26,0,0,0,0-2.916,1.8,1.8,0,0,0-2.564-.019,1.93,1.93,0,0,0-.535,1.437,2.055,2.055,0,0,0,.539,1.479,1.7,1.7,0,0,0,1.281.569,1.722,1.722,0,0,0,1.279-.55" transform="translate(61.686 65.558)" fill="#1a1a18"/>
        <path id="Path_34" data-name="Path 34" d="M61.518,65.331a3.155,3.155,0,0,1,0-4.024,2.472,2.472,0,0,1,1.879-.764,2.582,2.582,0,0,1,1.581.452,2.359,2.359,0,0,1,.856,1.281h-.958a1.408,1.408,0,0,0-.537-.733,1.628,1.628,0,0,0-.941-.265,1.552,1.552,0,0,0-1.229.535,2.677,2.677,0,0,0,0,3.014,1.55,1.55,0,0,0,1.229.533,1.4,1.4,0,0,0,1.479-1h.958a2.44,2.44,0,0,1-.866,1.264,2.531,2.531,0,0,1-1.57.469,2.47,2.47,0,0,1-1.879-.762" transform="translate(65.829 65.558)" fill="#1a1a18"/>
        <path id="Path_35" data-name="Path 35" d="M66.9,66.094a2.47,2.47,0,0,1-1.879-.762,2.8,2.8,0,0,1-.725-2.018,2.774,2.774,0,0,1,.733-2.012,2.586,2.586,0,0,1,4.495,1.8,3.2,3.2,0,0,1-.042.527H65.2A1.859,1.859,0,0,0,65.71,64.9a1.612,1.612,0,0,0,1.189.462,1.667,1.667,0,0,0,.925-.244,1.473,1.473,0,0,0,.554-.646h.958a2.472,2.472,0,0,1-.875,1.164,2.545,2.545,0,0,1-1.562.46m1.2-4.351a1.753,1.753,0,0,0-2.37-.01,1.833,1.833,0,0,0-.519,1.25h3.378a1.686,1.686,0,0,0-.489-1.239" transform="translate(69.623 65.558)" fill="#1a1a18"/>
        <path id="Path_36" data-name="Path 36" d="M67.933,62.149a1.427,1.427,0,0,1,.562-1.141,2.227,2.227,0,0,1,1.46-.464,2.043,2.043,0,0,1,1.4.454,1.757,1.757,0,0,1,.558,1.25H71a1.022,1.022,0,0,0-.3-.725,1.087,1.087,0,0,0-.789-.275,1.186,1.186,0,0,0-.791.242.766.766,0,0,0-.287.617.643.643,0,0,0,.327.581,2.276,2.276,0,0,0,.794.3c.308.065.621.135.929.217a1.689,1.689,0,0,1,.794.46,1.327,1.327,0,0,1,.327.96,1.269,1.269,0,0,1-.562,1.046,2.349,2.349,0,0,1-1.462.427,2.194,2.194,0,0,1-1.445-.45,1.673,1.673,0,0,1-.592-1.243h.919a.977.977,0,0,0,.321.719,1.165,1.165,0,0,0,.821.271,1.331,1.331,0,0,0,.823-.227.691.691,0,0,0,.3-.571.7.7,0,0,0-.235-.554,1.3,1.3,0,0,0-.585-.283c-.235-.054-.494-.115-.769-.185s-.535-.15-.769-.231a1.241,1.241,0,0,1-.589-.427,1.2,1.2,0,0,1-.233-.762" transform="translate(73.561 65.558)" fill="#1a1a18"/>
      </g>
    </g>
  </g>
</svg>
